<svg width="16" height="16" viewBox="0 0 16 16" fill="none" xmlns="http://www.w3.org/2000/svg">
<path fill-rule="evenodd" clip-rule="evenodd" d="M0.5 8.00012C0.5 3.86012 3.8525 0.500122 8 0.500122C12.14 0.500122 15.5 3.86012 15.5 8.00012C15.5 12.1476 12.14 15.5001 8 15.5001C3.8525 15.5001 0.5 12.1476 0.5 8.00012ZM9.67251 9.37259L10.8875 5.53259C10.97 5.27009 10.73 5.02259 10.4675 5.10509L6.62751 6.30509C6.47001 6.35759 6.34251 6.47759 6.29751 6.63509L5.09751 10.4826C5.01501 10.7376 5.26251 10.9851 5.51751 10.9026L9.34251 9.70259C9.50001 9.65759 9.62751 9.53009 9.67251 9.37259Z" fill="#FFC736"/>
</svg>
